<mxfile host="65bd71144e" modified="2020-11-23T11:50:27.215Z" agent="5.0 (Macintosh; Intel Mac OS X 10_14_5) AppleWebKit/537.36 (KHTML, like Gecko) Code/1.51.1 Chrome/83.0.4103.122 Electron/9.3.3 Safari/537.36" etag="t3ra-H8c_yA9TkuXHwna" version="13.6.5">
    <diagram id="xNYQZJzs4asAlTk9GyYr" name="第 1 页">
        <mxGraphModel dx="771" dy="534" grid="1" gridSize="10" guides="1" tooltips="1" connect="1" arrows="1" fold="1" page="1" pageScale="1" pageWidth="827" pageHeight="1169" background="#ffffff" math="0" shadow="1">
            <root>
                <mxCell id="0"/>
                <mxCell id="1" parent="0"/>
                <mxCell id="BRKJ1WWOMvI8rDlJ2ooS-2" value="" style="edgeStyle=orthogonalEdgeStyle;rounded=0;html=1;jettySize=auto;orthogonalLoop=1;plain-blue;endArrow=none;endFill=0;strokeWidth=4;entryX=0;entryY=0.5;entryDx=0;entryDy=0;entryPerimeter=0;strokeColor=#F0F0F0;" parent="1" source="BRKJ1WWOMvI8rDlJ2ooS-4" target="BRKJ1WWOMvI8rDlJ2ooS-106" edge="1">
                    <mxGeometry x="302.25" y="250" as="geometry">
                        <mxPoint x="430" y="250" as="targetPoint"/>
                    </mxGeometry>
                </mxCell>
                <mxCell id="BRKJ1WWOMvI8rDlJ2ooS-4" value="" style="verticalLabelPosition=bottom;verticalAlign=top;html=1;strokeWidth=4;shape=mxgraph.flowchart.on-page_reference;plain-blue;gradientColor=none;fillColor=#B5E3Fe;strokeColor=#000000;" parent="1" vertex="1">
                    <mxGeometry x="272.25" y="235" width="30" height="30" as="geometry"/>
                </mxCell>
                <mxCell id="BRKJ1WWOMvI8rDlJ2ooS-5" value="" style="edgeStyle=orthogonalEdgeStyle;curved=1;rounded=0;orthogonalLoop=1;jettySize=auto;html=1;endArrow=none;endFill=0;strokeWidth=4;entryX=0;entryY=0.5;entryDx=0;entryDy=0;entryPerimeter=0;" parent="1" source="BRKJ1WWOMvI8rDlJ2ooS-7" edge="1">
                    <mxGeometry relative="1" as="geometry">
                        <mxPoint x="871.25" y="250" as="targetPoint"/>
                    </mxGeometry>
                </mxCell>
                <mxCell id="BRKJ1WWOMvI8rDlJ2ooS-7" value="" style="verticalLabelPosition=bottom;verticalAlign=top;html=1;strokeWidth=4;shape=mxgraph.flowchart.on-page_reference;plain-blue;gradientColor=none;strokeColor=#000000;fillColor=#B5E3FE;" parent="1" vertex="1">
                    <mxGeometry x="1070" y="235" width="30" height="30" as="geometry"/>
                </mxCell>
                <mxCell id="BRKJ1WWOMvI8rDlJ2ooS-9" value="" style="edgeStyle=orthogonalEdgeStyle;rounded=0;html=1;jettySize=auto;orthogonalLoop=1;strokeWidth=4;endArrow=none;endFill=0;" parent="1" target="BRKJ1WWOMvI8rDlJ2ooS-4" edge="1">
                    <mxGeometry x="202.25" y="250" as="geometry">
                        <mxPoint x="182.25" y="250" as="sourcePoint"/>
                    </mxGeometry>
                </mxCell>
                <mxCell id="BRKJ1WWOMvI8rDlJ2ooS-10" value="master" style="text;html=1;strokeColor=none;fillColor=none;align=center;verticalAlign=middle;whiteSpace=wrap;overflow=hidden;fontSize=14;fontStyle=1;fontFamily=Courier New;" parent="1" vertex="1">
                    <mxGeometry x="90" y="229" width="60.5" height="42" as="geometry"/>
                </mxCell>
                <mxCell id="BRKJ1WWOMvI8rDlJ2ooS-18" value="" style="edgeStyle=orthogonalEdgeStyle;rounded=0;orthogonalLoop=1;jettySize=auto;html=1;endArrow=none;endFill=0;strokeWidth=4;entryX=0;entryY=0.5;entryDx=0;entryDy=0;entryPerimeter=0;" parent="1" source="0ogijX6JbmhKY_mySqg3-15" target="BRKJ1WWOMvI8rDlJ2ooS-27" edge="1">
                    <mxGeometry relative="1" as="geometry">
                        <mxPoint x="590" y="335" as="targetPoint"/>
                    </mxGeometry>
                </mxCell>
                <mxCell id="BRKJ1WWOMvI8rDlJ2ooS-20" style="edgeStyle=orthogonalEdgeStyle;curved=1;rounded=0;orthogonalLoop=1;jettySize=auto;html=1;exitX=1;exitY=0.5;exitDx=0;exitDy=0;exitPerimeter=0;entryX=0;entryY=0.5;entryDx=0;entryDy=0;entryPerimeter=0;endArrow=none;endFill=0;strokeWidth=4;fontFamily=Courier New;fontColor=#009900;" parent="1" source="0ogijX6JbmhKY_mySqg3-15" target="BRKJ1WWOMvI8rDlJ2ooS-30" edge="1">
                    <mxGeometry relative="1" as="geometry"/>
                </mxCell>
                <mxCell id="BRKJ1WWOMvI8rDlJ2ooS-21" value="" style="verticalLabelPosition=bottom;verticalAlign=top;html=1;strokeWidth=4;shape=mxgraph.flowchart.on-page_reference;plain-purple;gradientColor=none;strokeColor=#000000;fillColor=#D5E8D4;dashed=1;dashPattern=1 2;" parent="1" vertex="1">
                    <mxGeometry x="370" y="320" width="30" height="30" as="geometry"/>
                </mxCell>
                <mxCell id="BRKJ1WWOMvI8rDlJ2ooS-26" style="edgeStyle=orthogonalEdgeStyle;rounded=0;orthogonalLoop=1;jettySize=auto;html=1;entryX=0;entryY=0.5;entryDx=0;entryDy=0;entryPerimeter=0;endArrow=none;endFill=0;strokeWidth=4;fontFamily=Courier New;fontColor=#009900;curved=1;exitX=1;exitY=0.5;exitDx=0;exitDy=0;exitPerimeter=0;" parent="1" source="5" target="BRKJ1WWOMvI8rDlJ2ooS-7" edge="1">
                    <mxGeometry relative="1" as="geometry">
                        <mxPoint x="796.75" y="335" as="targetPoint"/>
                        <mxPoint x="1020" y="335" as="sourcePoint"/>
                    </mxGeometry>
                </mxCell>
                <mxCell id="19" value="git merge" style="edgeLabel;html=1;align=center;verticalAlign=middle;resizable=0;points=[];fontSize=11;fontFamily=Courier New;" parent="BRKJ1WWOMvI8rDlJ2ooS-26" vertex="1" connectable="0">
                    <mxGeometry x="0.471" y="16" relative="1" as="geometry">
                        <mxPoint x="21" y="34" as="offset"/>
                    </mxGeometry>
                </mxCell>
                <mxCell id="BRKJ1WWOMvI8rDlJ2ooS-27" value="" style="verticalLabelPosition=bottom;verticalAlign=top;html=1;strokeWidth=4;shape=mxgraph.flowchart.on-page_reference;plain-purple;gradientColor=none;strokeColor=#000000;fillColor=#D5E8D4;" parent="1" vertex="1">
                    <mxGeometry x="740" y="320" width="30" height="30" as="geometry"/>
                </mxCell>
                <mxCell id="BRKJ1WWOMvI8rDlJ2ooS-28" value="iter/tom/202011/invest_1.0" style="text;html=1;strokeColor=none;fillColor=none;align=left;verticalAlign=middle;whiteSpace=wrap;overflow=hidden;fontSize=14;fontStyle=1;fontFamily=Courier New;" parent="1" vertex="1">
                    <mxGeometry x="32.25" y="325" width="237.75" height="20" as="geometry"/>
                </mxCell>
                <mxCell id="BRKJ1WWOMvI8rDlJ2ooS-30" value="" style="verticalLabelPosition=bottom;verticalAlign=top;html=1;strokeWidth=4;shape=mxgraph.flowchart.on-page_reference;plain-purple;gradientColor=none;strokeColor=#000000;fillColor=#D5E8D4;" parent="1" vertex="1">
                    <mxGeometry x="650" y="370" width="30" height="30" as="geometry"/>
                </mxCell>
                <mxCell id="BRKJ1WWOMvI8rDlJ2ooS-31" style="edgeStyle=orthogonalEdgeStyle;curved=1;rounded=0;orthogonalLoop=1;jettySize=auto;html=1;exitX=1;exitY=0.5;exitDx=0;exitDy=0;exitPerimeter=0;entryX=0;entryY=0.5;entryDx=0;entryDy=0;entryPerimeter=0;endArrow=none;endFill=0;strokeWidth=4;fontFamily=Courier New;fontColor=#009900;" parent="1" source="BRKJ1WWOMvI8rDlJ2ooS-30" target="BRKJ1WWOMvI8rDlJ2ooS-27" edge="1">
                    <mxGeometry relative="1" as="geometry">
                        <mxPoint x="661.75" y="441" as="sourcePoint"/>
                    </mxGeometry>
                </mxCell>
                <mxCell id="BRKJ1WWOMvI8rDlJ2ooS-33" value="feature/jack/202011/footer" style="text;html=1;strokeColor=none;fillColor=none;align=left;verticalAlign=middle;whiteSpace=wrap;overflow=hidden;fontSize=14;fontStyle=1;fontFamily=Courier New;" parent="1" vertex="1">
                    <mxGeometry x="150.5" y="375" width="229.5" height="20" as="geometry"/>
                </mxCell>
                <mxCell id="BRKJ1WWOMvI8rDlJ2ooS-38" value="" style="endArrow=classic;html=1;strokeWidth=1;fontFamily=Courier New;fontColor=#009900;" parent="1" source="BRKJ1WWOMvI8rDlJ2ooS-33" edge="1">
                    <mxGeometry width="50" height="50" relative="1" as="geometry">
                        <mxPoint x="531.75" y="384.5" as="sourcePoint"/>
                        <mxPoint x="590" y="385" as="targetPoint"/>
                    </mxGeometry>
                </mxCell>
                <mxCell id="BRKJ1WWOMvI8rDlJ2ooS-39" value="" style="endArrow=classic;html=1;strokeWidth=1;fontFamily=Courier New;fontColor=#009900;" parent="1" edge="1">
                    <mxGeometry width="50" height="50" relative="1" as="geometry">
                        <mxPoint x="260" y="335" as="sourcePoint"/>
                        <mxPoint x="312.25" y="335" as="targetPoint"/>
                    </mxGeometry>
                </mxCell>
                <mxCell id="BRKJ1WWOMvI8rDlJ2ooS-63" value="" style="edgeStyle=orthogonalEdgeStyle;rounded=0;orthogonalLoop=1;jettySize=auto;html=1;fontSize=15;endArrow=none;endFill=0;strokeWidth=4;entryX=0;entryY=0.5;entryDx=0;entryDy=0;entryPerimeter=0;" parent="1" source="BRKJ1WWOMvI8rDlJ2ooS-106" target="BRKJ1WWOMvI8rDlJ2ooS-7" edge="1">
                    <mxGeometry relative="1" as="geometry">
                        <mxPoint x="570.25" y="250" as="targetPoint"/>
                    </mxGeometry>
                </mxCell>
                <mxCell id="BRKJ1WWOMvI8rDlJ2ooS-106" value="" style="verticalLabelPosition=bottom;verticalAlign=top;html=1;strokeWidth=4;shape=mxgraph.flowchart.on-page_reference;plain-blue;gradientColor=none;strokeColor=#000000;fillColor=#B5E3FE;" parent="1" vertex="1">
                    <mxGeometry x="460" y="235" width="30" height="30" as="geometry"/>
                </mxCell>
                <mxCell id="0ogijX6JbmhKY_mySqg3-2" value="" style="verticalLabelPosition=bottom;verticalAlign=top;html=1;strokeWidth=4;shape=mxgraph.flowchart.on-page_reference;plain-blue;gradientColor=#EA6B66;strokeColor=#B85450;fillColor=#F8CECC;" parent="1" vertex="1">
                    <mxGeometry x="370" y="180" width="30" height="30" as="geometry"/>
                </mxCell>
                <mxCell id="0ogijX6JbmhKY_mySqg3-4" value="" style="endArrow=none;html=1;exitX=1;exitY=0.5;exitDx=0;exitDy=0;exitPerimeter=0;entryX=0;entryY=0.5;entryDx=0;entryDy=0;entryPerimeter=0;curved=1;strokeWidth=4;edgeStyle=orthogonalEdgeStyle;" parent="1" source="BRKJ1WWOMvI8rDlJ2ooS-4" target="0ogijX6JbmhKY_mySqg3-2" edge="1">
                    <mxGeometry width="50" height="50" relative="1" as="geometry">
                        <mxPoint x="280" y="165" as="sourcePoint"/>
                        <mxPoint x="329.75" y="110" as="targetPoint"/>
                    </mxGeometry>
                </mxCell>
                <mxCell id="0ogijX6JbmhKY_mySqg3-5" value="" style="endArrow=none;html=1;entryX=1;entryY=0.5;entryDx=0;entryDy=0;entryPerimeter=0;exitX=0;exitY=0.5;exitDx=0;exitDy=0;exitPerimeter=0;curved=1;strokeWidth=4;edgeStyle=orthogonalEdgeStyle;" parent="1" source="BRKJ1WWOMvI8rDlJ2ooS-106" target="0ogijX6JbmhKY_mySqg3-2" edge="1">
                    <mxGeometry width="50" height="50" relative="1" as="geometry">
                        <mxPoint x="420" y="210" as="sourcePoint"/>
                        <mxPoint x="470" y="160" as="targetPoint"/>
                    </mxGeometry>
                </mxCell>
                <mxCell id="0ogijX6JbmhKY_mySqg3-6" value="hot fix" style="text;html=1;align=center;verticalAlign=middle;resizable=0;points=[];autosize=1;" parent="1" vertex="1">
                    <mxGeometry x="360" y="150" width="50" height="20" as="geometry"/>
                </mxCell>
                <mxCell id="0ogijX6JbmhKY_mySqg3-11" style="edgeStyle=orthogonalEdgeStyle;curved=1;orthogonalLoop=1;jettySize=auto;html=1;strokeWidth=1;" parent="1" source="0ogijX6JbmhKY_mySqg3-10" edge="1">
                    <mxGeometry relative="1" as="geometry">
                        <mxPoint x="340" y="195" as="targetPoint"/>
                    </mxGeometry>
                </mxCell>
                <mxCell id="0ogijX6JbmhKY_mySqg3-10" value="hotfix/tom/202011/fix_style" style="text;html=1;strokeColor=none;fillColor=none;align=left;verticalAlign=middle;whiteSpace=wrap;overflow=hidden;fontSize=14;fontStyle=1;fontFamily=Courier New;" parent="1" vertex="1">
                    <mxGeometry x="47.25" y="185" width="232.75" height="20" as="geometry"/>
                </mxCell>
                <mxCell id="0ogijX6JbmhKY_mySqg3-15" value="" style="verticalLabelPosition=bottom;verticalAlign=top;html=1;strokeWidth=4;shape=mxgraph.flowchart.on-page_reference;plain-purple;gradientColor=none;strokeColor=#000000;fillColor=#D5E8D4;" parent="1" vertex="1">
                    <mxGeometry x="555" y="320" width="30" height="30" as="geometry"/>
                </mxCell>
                <mxCell id="0ogijX6JbmhKY_mySqg3-16" value="" style="edgeStyle=orthogonalEdgeStyle;rounded=0;orthogonalLoop=1;jettySize=auto;html=1;endArrow=none;endFill=0;strokeWidth=4;entryX=0;entryY=0.5;entryDx=0;entryDy=0;entryPerimeter=0;dashed=1;dashPattern=1 2;" parent="1" source="BRKJ1WWOMvI8rDlJ2ooS-21" target="0ogijX6JbmhKY_mySqg3-15" edge="1">
                    <mxGeometry relative="1" as="geometry">
                        <mxPoint x="740" y="335" as="targetPoint"/>
                        <mxPoint x="390" y="335" as="sourcePoint"/>
                    </mxGeometry>
                </mxCell>
                <mxCell id="0ogijX6JbmhKY_mySqg3-17" style="edgeStyle=orthogonalEdgeStyle;rounded=0;orthogonalLoop=1;jettySize=auto;html=1;endArrow=none;endFill=0;strokeWidth=4;curved=1;entryX=1;entryY=0.5;entryDx=0;entryDy=0;entryPerimeter=0;exitX=0;exitY=0.5;exitDx=0;exitDy=0;exitPerimeter=0;" parent="1" source="0ogijX6JbmhKY_mySqg3-15" target="BRKJ1WWOMvI8rDlJ2ooS-106" edge="1">
                    <mxGeometry relative="1" as="geometry">
                        <mxPoint x="478.04999999999995" y="265" as="targetPoint"/>
                        <mxPoint x="510" y="335" as="sourcePoint"/>
                    </mxGeometry>
                </mxCell>
                <mxCell id="18" value="git rebase" style="edgeLabel;html=1;align=center;verticalAlign=middle;resizable=0;points=[];fontSize=11;fontFamily=Courier New;" parent="0ogijX6JbmhKY_mySqg3-17" vertex="1" connectable="0">
                    <mxGeometry x="0.6571" y="1" relative="1" as="geometry">
                        <mxPoint x="4" y="39" as="offset"/>
                    </mxGeometry>
                </mxCell>
                <mxCell id="0ogijX6JbmhKY_mySqg3-18" value="" style="endArrow=none;dashed=1;html=1;strokeWidth=4;exitX=0.5;exitY=1;exitDx=0;exitDy=0;exitPerimeter=0;entryX=0;entryY=0.5;entryDx=0;entryDy=0;entryPerimeter=0;curved=1;dashPattern=1 2;" parent="1" source="BRKJ1WWOMvI8rDlJ2ooS-4" target="BRKJ1WWOMvI8rDlJ2ooS-21" edge="1">
                    <mxGeometry width="50" height="50" relative="1" as="geometry">
                        <mxPoint x="320" y="310" as="sourcePoint"/>
                        <mxPoint x="370" y="260" as="targetPoint"/>
                        <Array as="points">
                            <mxPoint x="287" y="335"/>
                        </Array>
                    </mxGeometry>
                </mxCell>
                <mxCell id="17" value="git branch" style="edgeLabel;html=1;align=center;verticalAlign=middle;resizable=0;points=[];fontSize=11;fontFamily=Courier New;" parent="0ogijX6JbmhKY_mySqg3-18" vertex="1" connectable="0">
                    <mxGeometry x="-0.3212" y="20" relative="1" as="geometry">
                        <mxPoint x="-7.06" y="-17.07" as="offset"/>
                    </mxGeometry>
                </mxCell>
                <mxCell id="2" value="" style="verticalLabelPosition=bottom;verticalAlign=top;html=1;strokeWidth=4;shape=mxgraph.flowchart.on-page_reference;plain-purple;gradientColor=none;strokeColor=#000000;fillColor=#D5E8D4;" parent="1" vertex="1">
                    <mxGeometry x="870" y="430" width="30" height="30" as="geometry"/>
                </mxCell>
                <mxCell id="3" value="" style="endArrow=none;html=1;entryX=0.5;entryY=1;entryDx=0;entryDy=0;entryPerimeter=0;exitX=0;exitY=0.5;exitDx=0;exitDy=0;exitPerimeter=0;edgeStyle=orthogonalEdgeStyle;elbow=vertical;curved=1;dashed=1;dashPattern=1 4;strokeWidth=4;" parent="1" source="2" target="0ogijX6JbmhKY_mySqg3-15" edge="1">
                    <mxGeometry width="50" height="50" relative="1" as="geometry">
                        <mxPoint x="580" y="500" as="sourcePoint"/>
                        <mxPoint x="630" y="450" as="targetPoint"/>
                    </mxGeometry>
                </mxCell>
                <mxCell id="16" value="git branch" style="edgeLabel;html=1;align=center;verticalAlign=middle;resizable=0;points=[];fontSize=11;fontFamily=Courier New;" parent="3" vertex="1" connectable="0">
                    <mxGeometry x="0.3227" y="-37" relative="1" as="geometry">
                        <mxPoint as="offset"/>
                    </mxGeometry>
                </mxCell>
                <mxCell id="4" value="" style="endArrow=none;html=1;entryX=1;entryY=0.5;entryDx=0;entryDy=0;entryPerimeter=0;exitX=0;exitY=0.5;exitDx=0;exitDy=0;exitPerimeter=0;edgeStyle=orthogonalEdgeStyle;strokeWidth=4;curved=1;" parent="1" source="2" target="BRKJ1WWOMvI8rDlJ2ooS-27" edge="1">
                    <mxGeometry width="50" height="50" relative="1" as="geometry">
                        <mxPoint x="740" y="430" as="sourcePoint"/>
                        <mxPoint x="790" y="380" as="targetPoint"/>
                    </mxGeometry>
                </mxCell>
                <mxCell id="15" value="git rebase" style="edgeLabel;html=1;align=center;verticalAlign=middle;resizable=0;points=[];fontSize=11;fontFamily=Courier New;" parent="4" vertex="1" connectable="0">
                    <mxGeometry x="0.4762" y="-15" relative="1" as="geometry">
                        <mxPoint x="-15" y="45" as="offset"/>
                    </mxGeometry>
                </mxCell>
                <mxCell id="5" value="" style="verticalLabelPosition=bottom;verticalAlign=top;html=1;strokeWidth=4;shape=mxgraph.flowchart.on-page_reference;plain-purple;gradientColor=none;strokeColor=#000000;fillColor=#D5E8D4;" parent="1" vertex="1">
                    <mxGeometry x="970" y="320" width="30" height="30" as="geometry"/>
                </mxCell>
                <mxCell id="6" value="" style="endArrow=none;html=1;strokeWidth=4;entryX=0;entryY=0.5;entryDx=0;entryDy=0;entryPerimeter=0;exitX=1;exitY=0.5;exitDx=0;exitDy=0;exitPerimeter=0;" parent="1" source="BRKJ1WWOMvI8rDlJ2ooS-27" target="5" edge="1">
                    <mxGeometry width="50" height="50" relative="1" as="geometry">
                        <mxPoint x="860" y="370" as="sourcePoint"/>
                        <mxPoint x="910" y="320" as="targetPoint"/>
                    </mxGeometry>
                </mxCell>
                <mxCell id="7" value="" style="endArrow=none;html=1;strokeWidth=4;entryX=0;entryY=0.5;entryDx=0;entryDy=0;entryPerimeter=0;exitX=1;exitY=0.5;exitDx=0;exitDy=0;exitPerimeter=0;edgeStyle=orthogonalEdgeStyle;curved=1;" parent="1" source="2" target="5" edge="1">
                    <mxGeometry width="50" height="50" relative="1" as="geometry">
                        <mxPoint x="930" y="440" as="sourcePoint"/>
                        <mxPoint x="980" y="390" as="targetPoint"/>
                    </mxGeometry>
                </mxCell>
                <mxCell id="14" value="git merge" style="edgeLabel;html=1;align=center;verticalAlign=middle;resizable=0;points=[];fontSize=11;fontFamily=Courier New;" parent="7" vertex="1" connectable="0">
                    <mxGeometry x="0.3" y="15" relative="1" as="geometry">
                        <mxPoint x="20" y="22" as="offset"/>
                    </mxGeometry>
                </mxCell>
                <mxCell id="9" style="edgeStyle=orthogonalEdgeStyle;curved=1;rounded=0;orthogonalLoop=1;jettySize=auto;html=1;strokeWidth=1;fontFamily=Courier New;fontSize=11;" parent="1" source="8" edge="1">
                    <mxGeometry relative="1" as="geometry">
                        <mxPoint x="755" y="445" as="targetPoint"/>
                    </mxGeometry>
                </mxCell>
                <mxCell id="8" value="feature/terry/202011/header" style="text;html=1;align=left;verticalAlign=middle;resizable=0;points=[];autosize=1;fontSize=14;fontFamily=Courier New;fontStyle=1" parent="1" vertex="1">
                    <mxGeometry x="345" y="435" width="240" height="20" as="geometry"/>
                </mxCell>
                <mxCell id="20" value="" style="endArrow=none;html=1;strokeWidth=4;fontFamily=Courier New;fontSize=11;exitX=1;exitY=0.5;exitDx=0;exitDy=0;exitPerimeter=0;" parent="1" source="BRKJ1WWOMvI8rDlJ2ooS-7" edge="1">
                    <mxGeometry width="50" height="50" relative="1" as="geometry">
                        <mxPoint x="1130" y="250" as="sourcePoint"/>
                        <mxPoint x="1190" y="250" as="targetPoint"/>
                    </mxGeometry>
                </mxCell>
                <mxCell id="22" value="" style="endArrow=classic;html=1;strokeWidth=1;fontFamily=Courier New;fontSize=11;" parent="1" edge="1">
                    <mxGeometry width="50" height="50" relative="1" as="geometry">
                        <mxPoint x="1030" y="335" as="sourcePoint"/>
                        <mxPoint x="1110" y="335" as="targetPoint"/>
                    </mxGeometry>
                </mxCell>
                <mxCell id="23" value="deploy dev/sit/uat server" style="text;html=1;align=center;verticalAlign=middle;resizable=0;points=[];autosize=1;fontSize=11;fontFamily=Courier New;" parent="1" vertex="1">
                    <mxGeometry x="1110" y="325" width="180" height="20" as="geometry"/>
                </mxCell>
                <mxCell id="24" value="" style="endArrow=classic;html=1;strokeWidth=1;fontFamily=Courier New;fontSize=11;" parent="1" edge="1">
                    <mxGeometry width="50" height="50" relative="1" as="geometry">
                        <mxPoint x="1200" y="250" as="sourcePoint"/>
                        <mxPoint x="1280" y="250" as="targetPoint"/>
                    </mxGeometry>
                </mxCell>
                <mxCell id="25" value="deploy prd server" style="text;html=1;align=center;verticalAlign=middle;resizable=0;points=[];autosize=1;fontSize=11;fontFamily=Courier New;" parent="1" vertex="1">
                    <mxGeometry x="1280" y="240" width="130" height="20" as="geometry"/>
                </mxCell>
            </root>
        </mxGraphModel>
    </diagram>
</mxfile>